HIERARCHY
ROOT Hips
{
	OFFSET 0.00 0.00 0.00
	CHANNELS 6 Xposition Yposition Zposition Xrotation Yrotation Zrotation
	JOINT RightUpLeg
	{
		OFFSET -3.69398 0.00000 0.00000
		CHANNELS 3 Xrotation Yrotation Zrotation
		JOINT RightLeg
		{
			OFFSET 0.00000 -15.79567 0.00000
			CHANNELS 3 Xrotation Yrotation Zrotation
			JOINT RightFoot
			{
				OFFSET 0.00000 -14.76699 0.00000
				CHANNELS 3 Xrotation Yrotation Zrotation
				JOINT RightToeBase
				{
					OFFSET 0.00000 -1.28446 4.79369
					CHANNELS 3 Xrotation Yrotation Zrotation
					End Site
					{
						OFFSET 0.00000 0.00000 2.95275
					}
				}
			}
		}
	}
	JOINT LeftUpLeg
	{
		OFFSET 3.69398 0.00000 0.00000
		CHANNELS 3 Xrotation Yrotation Zrotation
		JOINT LeftLeg
		{
			OFFSET 0.00000 -15.79567 0.00000
			CHANNELS 3 Xrotation Yrotation Zrotation
			JOINT LeftFoot
			{
				OFFSET 0.00000 -14.76699 0.00000
				CHANNELS 3 Xrotation Yrotation Zrotation
				JOINT LeftToeBase
				{
					OFFSET 0.00000 -1.28446 4.79369
					CHANNELS 3 Xrotation Yrotation Zrotation
					End Site
					{
						OFFSET 0.00000 0.00000 2.95275
					}
				}
			}
		}
	}
	JOINT Spine
	{
		OFFSET 0.00000 2.39296 0.00000
		CHANNELS 3 Xrotation Yrotation Zrotation
		JOINT RightShoulder
		{
			OFFSET 0.00000 13.20741 0.00000
			CHANNELS 3 Xrotation Yrotation Zrotation
			JOINT RightArm
			{
				OFFSET -8.14047 0.00000 0.00000
				CHANNELS 3 Xrotation Yrotation Zrotation
				JOINT RightForeArm
				{
					OFFSET -10.64984 0.00000 0.00000
					CHANNELS 3 Yrotation Zrotation Xrotation
					JOINT RightHand
					{
						OFFSET -8.30462 0.00000 0.00000
						CHANNELS 3 Xrotation Yrotation Zrotation
						End Site
						{
							OFFSET -3.93700 0.00000 0.00000
						}
						JOINT RightHandThumb1
						{
							OFFSET 0.00000 0.00000 0.00000
							CHANNELS 3 Xrotation Zrotation Yrotation
							End Site
							{
								OFFSET 0.00000 0.00000 3.93700
							}
						}
					}
				}
			}
		}
		JOINT LeftShoulder
		{
			OFFSET 0.00000 13.20741 0.00000
			CHANNELS 3 Xrotation Yrotation Zrotation
			JOINT LeftArm
			{
				OFFSET 8.14047 0.00000 0.00000
				CHANNELS 3 Xrotation Yrotation Zrotation
				JOINT LeftForeArm
				{
					OFFSET 10.64984 0.00000 0.00000
					CHANNELS 3 Yrotation Zrotation Xrotation
					JOINT LeftHand
					{
						OFFSET 8.30462 0.00000 0.00000
						CHANNELS 3 Xrotation Yrotation Zrotation
						End Site
						{
							OFFSET 3.93700 0.00000 0.00000
						}
						JOINT LeftHandThumb1
						{
							OFFSET 0.00000 0.00000 0.00000
							CHANNELS 3 Xrotation Zrotation Yrotation
							End Site
							{
								OFFSET 0.00000 0.00000 3.93700
							}
						}
					}
				}
			}
		}
		JOINT Head
		{
			OFFSET 0.00000 19.25010 0.00000
			CHANNELS 3 Xrotation Yrotation Zrotation
			End Site
			{
				OFFSET 0.00000 4.52755 0.00000
			}
		}
	}
}
MOTION
Frames: 15
Frame Time: 0.008333
 1.0046 32.7046 0.2310 42.6343 0.0755 -2.3630 -36.0725 -10.7605 2.9642 -1.4046 0.0000 0.0000 -6.7666 -2.2887 23.0819 18.3815 -0.0000 -0.0000 -37.9951 4.0836 0.3285 2.2891 0.0000 -0.0000 -10.7442 -1.5574 -7.8450 10.1402 0.0000 -0.0000 -46.2528 -0.1383 -1.2279 -24.9588 -5.9574 -39.2797 10.6559 15.2171 49.1507 0.5424 -0.0000 -4.7765 2.3746 14.8683 -9.1800 32.8623 0.0000 -24.3270 -4.0250 12.9289 39.9602 -20.2628 -2.9414 -43.4945 -7.3137 0.0000 17.7032 -5.7634 24.9810 13.4412 33.1476 -0.0000 26.2537 13.2370 -7.7043 15.7109
 0.9911 32.7239 0.1907 42.7980 -0.3279 -2.3156 -36.4496 -10.6323 3.0597 -1.1633 0.0000 -0.0000 -6.5891 -2.3296 24.2964 18.0059 0.0000 0.0000 -38.2514 4.2000 0.5446 2.3366 0.0000 -0.0000 -10.7036 -1.3147 -7.6879 10.1240 -0.0000 0.0000 -46.2829 -0.0362 -1.0729 -24.7769 -6.1507 -38.9936 10.4552 15.5231 49.9224 0.5517 -0.0000 -4.8986 2.4836 15.1692 -9.4116 32.8623 0.0000 -24.3270 -3.9253 13.0246 39.8923 -20.3774 -2.0331 -44.2761 -8.0968 0.0000 18.0083 -5.9899 24.9537 13.9666 33.1476 -0.0000 26.2537 13.4788 -7.7054 16.1142
 0.9739 32.7429 0.1532 42.9318 -0.7614 -2.2484 -36.7907 -10.4825 3.1375 -0.9370 0.0000 -0.0000 -6.3930 -2.1292 25.7854 17.5697 -0.0000 -0.0000 -38.4670 4.3046 0.7745 2.3857 0.0000 0.0000 -10.6664 -1.0545 -7.4872 10.0272 -0.0000 -0.0000 -46.2921 0.0860 -0.9227 -24.5685 -6.3168 -38.6687 10.3123 15.8202 50.6778 0.6043 -0.0000 -4.9796 2.5260 15.3914 -9.4372 32.8623 0.0000 -24.3270 -3.7530 13.1559 39.8311 -20.4604 -1.1966 -45.0776 -8.8332 0.0000 18.1805 -6.1715 25.1256 14.2874 33.1476 -0.0000 26.2537 13.7349 -7.6910 16.5321
 0.9578 32.7612 0.1151 43.0279 -1.1777 -2.1721 -37.0953 -10.2583 3.1835 -0.7335 0.0000 0.0000 -5.9698 -1.9498 27.8461 16.7605 0.0000 -0.0000 -38.6589 4.4102 0.9936 2.4625 0.0000 -0.0000 -10.6500 -0.8072 -7.3364 10.0413 -0.0000 0.0000 -46.2616 0.1772 -0.7849 -24.3369 -6.4554 -38.3239 10.1487 16.1573 51.4425 0.5780 -0.0000 -4.9860 2.5232 15.5047 -9.3608 32.8623 0.0000 -24.3270 -3.5515 13.3587 39.7714 -20.5583 -0.5116 -45.9162 -9.3369 0.0000 18.5369 -6.2216 25.1822 14.3706 33.1476 -0.0000 26.2537 13.9994 -7.5743 16.9373
 0.9421 32.7785 0.0827 43.1003 -1.5947 -2.0621 -37.3335 -9.9544 3.2132 -0.6369 0.0000 -0.0000 -5.6060 -2.0478 29.7843 16.4612 -0.0000 -0.0000 -38.8031 4.4775 1.1941 2.5426 -0.0000 -0.0000 -10.6097 -0.4573 -7.1251 9.9548 0.0000 0.0000 -46.2180 0.3326 -0.6606 -24.1650 -6.5104 -38.0091 10.0940 16.3739 52.2275 0.5973 -0.0000 -4.9945 2.5174 15.4987 -9.3432 32.8623 0.0000 -24.3270 -3.2857 13.5930 39.6698 -20.6256 -0.0740 -46.7531 -9.7073 0.0000 18.4787 -6.2572 25.3224 14.3783 33.1476 -0.0000 26.2537 14.2730 -7.5149 17.3475
 0.9249 32.7932 0.0517 43.1371 -1.9854 -1.9631 -37.4774 -9.6147 3.2161 -0.6432 0.0000 0.0000 -5.4407 -2.0709 31.3504 16.3096 -0.0000 0.0000 -38.9098 4.5398 1.3801 2.6145 -0.0000 0.0000 -10.5933 -0.1595 -6.9693 10.1826 -0.0000 0.0000 -46.1430 0.4558 -0.5419 -23.9500 -6.5961 -37.6952 9.9535 16.6767 53.0245 0.4395 -0.0000 -4.8913 2.3984 15.3257 -9.0049 32.8623 0.0000 -24.3270 -3.0151 13.8049 39.5715 -20.5436 0.1669 -47.5946 -9.8984 0.0000 18.4687 -6.2180 25.3804 14.2619 33.1476 -0.0000 26.2537 14.5117 -7.4107 17.7083
 0.9095 32.8064 0.0187 43.1868 -2.3326 -1.8703 -37.5684 -9.0776 3.1854 -0.8190 0.0000 -0.0000 -5.4130 -2.2203 32.3278 16.5964 -0.0000 -0.0000 -39.0692 4.6198 1.5460 2.7455 -0.0000 -0.0000 -10.6201 0.0290 -6.8624 10.1326 -0.0000 -0.0000 -46.0650 0.5605 -0.4261 -23.7447 -6.6843 -37.4113 9.8072 16.9726 53.8112 0.2910 -0.0000 -4.7991 2.3238 15.0578 -8.8778 32.8623 0.0000 -24.3270 -2.7332 14.0223 39.4425 -20.4944 0.2770 -48.4450 -9.8776 0.0000 18.5787 -6.1120 25.3650 14.0343 33.1476 -0.0000 26.2537 14.7516 -7.3364 18.0341
 0.8960 32.8184 -0.0062 43.2022 -2.6571 -1.8025 -37.6124 -8.8284 3.1358 -0.9798 0.0000 -0.0000 -5.4702 -2.2667 32.6935 17.1607 0.0000 0.0000 -39.1775 4.6982 1.7166 2.8665 -0.0000 0.0000 -10.6720 0.1874 -6.7918 10.0573 0.0000 -0.0000 -45.9777 0.6195 -0.2940 -23.5222 -6.7673 -37.1046 9.6905 17.3755 54.5408 0.0318 -0.0000 -4.8896 2.1247 15.1678 -8.0705 32.8623 0.0000 -24.3270 -2.4187 14.2737 39.2922 -20.4441 0.2765 -49.3093 -9.7698 0.0000 18.6541 -5.9831 25.4224 13.7196 33.1476 -0.0000 26.2537 14.9941 -7.1833 18.3280
 0.8819 32.8290 -0.0326 43.2151 -2.9393 -1.7508 -37.6437 -8.6832 3.0662 -1.1681 0.0000 -0.0000 -5.7119 -2.6215 32.8297 18.4307 0.0000 -0.0000 -39.3056 4.7379 1.8766 3.0250 0.0000 -0.0000 -10.7415 0.3355 -6.6893 10.0041 -0.0000 -0.0000 -45.8956 0.6821 -0.1523 -23.2935 -6.8691 -36.8902 9.5267 17.8120 55.3686 -0.2784 -0.0000 -4.9789 2.0079 15.0371 -7.6956 32.8623 0.0000 -24.3270 -2.1387 14.3873 39.1363 -20.0962 0.0979 -50.1495 -9.5668 0.0000 18.8061 -5.6692 25.1439 13.1504 33.1476 -0.0000 26.2537 15.2558 -7.1149 18.5169
 0.8686 32.8389 -0.0576 43.2413 -3.2013 -1.7247 -37.6486 -8.7057 2.9483 -1.4526 -0.0000 0.0000 -5.9240 -3.4627 33.7140 18.0817 -0.0000 0.0000 -39.4437 4.7239 2.0435 3.1928 0.0000 -0.0000 -10.7321 0.5488 -6.3797 9.8261 -0.0000 0.0000 -45.8239 0.7379 -0.0041 -23.0967 -6.9555 -36.6158 9.4886 18.2815 56.0513 -0.5765 -0.0000 -5.3282 1.8228 14.9447 -7.0349 32.8623 0.0000 -24.3270 -1.9092 14.4632 38.9652 -19.7324 -0.1676 -50.9946 -9.3552 0.0000 18.6434 -5.4728 24.9927 12.7768 33.1476 -0.0000 26.2537 15.5122 -7.0550 18.7341
 0.8578 32.8458 -0.0814 43.2598 -3.4215 -1.6791 -37.6574 -8.9460 2.7618 -1.7465 0.0000 0.0000 -6.0503 -4.1083 33.5174 17.2139 0.0000 -0.0000 -39.5712 4.7164 2.1670 3.3707 0.0000 -0.0000 -10.8055 0.7768 -6.3050 10.1360 0.0000 -0.0000 -45.7423 0.7749 0.1156 -22.9171 -7.0374 -36.3572 9.3907 18.6891 56.7642 -0.9035 -0.0000 -5.4369 1.6419 14.5904 -6.4919 32.8623 0.0000 -24.3270 -1.7049 14.5122 38.7862 -19.3941 -0.4451 -51.8481 -9.0118 0.0000 18.2827 -5.2741 24.7664 12.4269 33.1476 -0.0000 26.2537 15.7336 -6.9786 18.9001
 0.8485 32.8509 -0.1037 43.2844 -3.6132 -1.6574 -37.6657 -9.4908 2.5360 -2.0117 0.0000 0.0000 -6.1313 -5.2638 33.4507 16.1896 0.0000 0.0000 -39.7671 4.8959 2.2992 3.6356 -0.0000 -0.0000 -10.9334 0.7542 -6.2571 10.1875 0.0000 0.0000 -45.6727 0.7845 0.2522 -22.7731 -7.0807 -36.1427 9.3220 19.0447 57.5116 -1.2053 -0.0000 -5.6992 1.4560 14.4145 -5.8300 32.8623 0.0000 -24.3270 -1.4954 14.4952 38.6062 -19.0448 -0.5653 -52.7054 -8.7625 0.0000 18.0269 -5.0771 24.5564 12.0671 33.1476 -0.0000 26.2537 15.9506 -6.9689 19.0283
 0.8415 32.8559 -0.1235 43.3139 -3.7782 -1.6094 -37.7252 -10.2400 2.2173 -2.1997 -0.0000 -0.0000 -6.2563 -6.4885 33.6179 15.6829 0.0000 -0.0000 -39.8940 4.8974 2.3799 3.7842 0.0000 -0.0000 -11.0720 0.9420 -6.4365 10.5377 -0.0000 -0.0000 -45.6074 0.7828 0.3665 -22.5653 -7.1647 -35.9382 9.0994 19.3343 58.2848 -1.5737 -0.0000 -5.9352 1.3165 14.3821 -5.2861 32.8623 0.0000 -24.3270 -1.2860 14.5332 38.3813 -18.7777 -0.7098 -53.5407 -8.4731 0.0000 17.7572 -4.8606 24.3094 11.6715 33.1476 -0.0000 26.2537 16.1567 -6.8997 19.1235
 0.8349 32.8585 -0.1453 43.3623 -3.9303 -1.5338 -37.8338 -11.0208 1.8414 -2.2892 -0.0000 0.0000 -5.8498 -8.0628 32.0590 18.7622 -0.0000 -0.0000 -40.0071 4.8153 2.4281 3.8825 -0.0000 -0.0000 -11.0373 1.1165 -6.1605 10.2593 0.0000 -0.0000 -45.5498 0.8274 0.4538 -22.4166 -7.2583 -35.7297 8.8721 19.4133 59.0353 -1.8044 -0.0000 -6.0368 1.1629 14.3821 -4.6721 32.8623 0.0000 -24.3270 -1.1206 14.5892 38.1656 -18.6866 -0.7719 -54.3953 -8.1649 0.0000 17.6412 -4.5589 24.1652 11.0221 33.1476 -0.0000 26.2537 16.3140 -6.9091 19.2279
 0.8328 32.8609 -0.1662 43.4235 -4.0926 -1.4120 -38.0184 -12.0281 1.3486 -2.3304 0.0000 0.0000 -5.5091 -8.9702 30.6701 18.7919 -0.0000 -0.0000 -40.1188 4.8562 2.4430 3.9571 -0.0000 0.0000 -11.0357 1.2214 -6.0499 10.1709 0.0000 -0.0000 -45.5112 0.9300 0.5255 -22.2763 -7.3660 -35.5193 8.6923 19.5051 59.7497 -1.9944 -0.0000 -6.3167 1.0711 14.3592 -4.3114 32.8623 0.0000 -24.3270 -0.8941 14.6008 37.9459 -18.5208 -0.8292 -55.2513 -7.9364 0.0000 17.3120 -4.4013 24.1252 10.6644 33.1476 -0.0000 26.2537 16.4782 -6.9327 19.3223
